<svg xmlns="http://www.w3.org/2000/svg" width="24" height="23.998" viewBox="0 0 24 23.998"><defs><style>.a{fill:#e23e2e;}</style></defs><g transform="translate(0 -0.016)"><g transform="translate(0 0.016)"><path class="a" d="M14.643,12.015l8.973-8.974a1.315,1.315,0,0,0,0-1.856L22.83.4a1.316,1.316,0,0,0-1.857,0L12,9.372,3.027.4A1.315,1.315,0,0,0,1.171.4l-.787.786a1.314,1.314,0,0,0,0,1.856l8.973,8.974L.384,20.988a1.316,1.316,0,0,0,0,1.857l.787.786a1.315,1.315,0,0,0,1.856,0L12,14.658l8.973,8.973a1.3,1.3,0,0,0,.928.383h0a1.3,1.3,0,0,0,.928-.383l.786-.786a1.316,1.316,0,0,0,0-1.856Z" transform="translate(0 -0.016)"/></g></g></svg>