<svg xmlns="http://www.w3.org/2000/svg" width="32" height="21.528" viewBox="0 0 32 21.528"><defs><style>.a{fill:#50798d;}</style></defs><g transform="translate(0 -80.506)"><g transform="translate(0 80.506)"><path class="a" d="M31.488,82.065,30.44,81.017a1.754,1.754,0,0,0-2.475,0L13.236,95.745l-9.2-9.2a1.755,1.755,0,0,0-2.475,0L.511,87.591a1.756,1.756,0,0,0,0,2.476L10.9,100.456a.4.4,0,0,0,.045.054l1.048,1.031a1.728,1.728,0,0,0,1.241.492h.005a1.723,1.723,0,0,0,1.237-.492l1.049-1.04a.264.264,0,0,0,.04-.044L31.488,84.537A1.748,1.748,0,0,0,31.488,82.065Z" transform="translate(0 -80.506)"/></g></g></svg>