<svg xmlns="http://www.w3.org/2000/svg" width="147.576" height="104" viewBox="0 0 147.576 104"><defs><style>.a{fill:#e23e2e;}.b{fill:#f2f2f2;}.c{fill:#3f3d56;}.d{fill:#2f2e41;}.e{fill:#a0616a;}.f{fill:#325464;}.g{fill:#e6e6e6;}.h{fill:#ffb8b8;}.i{fill:#ccc;}</style></defs><circle class="a" cx="8.037" cy="8.037" r="8.037" transform="translate(67.333 87.706)"/><path class="b" d="M403.095,294.4c4.5-1.35,9.276-2.758,12.842-5.968,3.186-2.868,5.338-7.249,4.017-11.551s-5.263-7.156-9.337-8.579a38.305,38.305,0,0,0-7.144-1.607c-2.627-.383-5.265-.7-7.9-1q-16.017-1.832-32.155-2.238c-5.309-.134-10.616-.13-15.926-.053-4.742.069-9.735.067-14.134-1.948-3.421-1.567-6.525-4.418-7.478-8.165-1.1-4.325.929-8.729,3.84-11.862a31.094,31.094,0,0,1,5.178-4.318c2.007-1.386,4.084-2.674,6.206-3.877a86.419,86.419,0,0,1,13.063-6.022c2.227-.81,4.487-1.508,6.766-2.153a57.891,57.891,0,0,0,5.716-1.831c3.6-1.433,7.017-3.861,7.931-7.841a12.252,12.252,0,0,0-3.156-10.67c-2.964-3.242-7.432-4.663-11.716-4.893-4.81-.258-9.508.946-14.029,2.473-4.822,1.629-9.539,3.5-14.462,4.823a97.307,97.307,0,0,1-14.885,2.767,40.376,40.376,0,0,1-7.47.357,9.033,9.033,0,0,1-5.667-2.25,5.6,5.6,0,0,1-1.823-4.828c.049-.333.554-.191.505.139-.327,2.228,1.188,4.282,3.055,5.334,2.157,1.216,4.783,1.217,7.185,1.078a93.968,93.968,0,0,0,15.465-2.236,124.279,124.279,0,0,0,14.624-4.514c4.57-1.655,9.242-3.27,14.124-3.628a21.092,21.092,0,0,1,12.383,2.52,13.7,13.7,0,0,1,6.388,8.914,10.332,10.332,0,0,1-3.04,9.839c-2.852,2.629-6.762,3.753-10.405,4.788a95.327,95.327,0,0,0-13.521,4.84,84.879,84.879,0,0,0-12.719,7.151c-3.887,2.656-7.722,6-8.952,10.736a9.891,9.891,0,0,0,.491,6.633,12.121,12.121,0,0,0,3.889,4.616c3.9,2.87,8.815,3.459,13.525,3.517,5.291.066,10.581-.113,15.874-.026q16.178.266,32.29,1.969,4.037.427,8.064.945a72.912,72.912,0,0,1,7.212,1.17c4.221.98,8.329,2.864,10.953,6.443a10.189,10.189,0,0,1,.868,11.141c-2.015,3.964-5.789,6.486-9.8,8.142a69.525,69.525,0,0,1-6.6,2.227.262.262,0,0,1-.139-.505Z" transform="translate(-279.713 -191.072)"/><circle class="b" cx="4.193" cy="4.193" r="4.193" transform="translate(17.802 7.949)"/><circle class="b" cx="4.193" cy="4.193" r="4.193" transform="translate(46.892 15.899)"/><circle class="b" cx="4.193" cy="4.193" r="4.193" transform="translate(71.526)"/><circle class="b" cx="4.193" cy="4.193" r="4.193" transform="translate(86.901 17.821)"/><circle class="b" cx="4.193" cy="4.193" r="4.193" transform="translate(66.11 38.437)"/><circle class="b" cx="4.193" cy="4.193" r="4.193" transform="translate(39.729 48.396)"/><circle class="b" cx="4.193" cy="4.193" r="4.193" transform="translate(67.683 63.945)"/><circle class="b" cx="4.193" cy="4.193" r="4.193" transform="translate(97.733 72.681)"/><circle class="b" cx="4.193" cy="4.193" r="4.193" transform="translate(132.851 70.759)"/><path class="a" d="M495.363,220.37a23.257,23.257,0,0,0-23.023,22.855c0,.116,0,.931,0,2a5.9,5.9,0,0,0,5.9,5.9h0a5.9,5.9,0,0,0,5.9-5.9c0-.727,0-1.229,0-1.26a11.182,11.182,0,1,1,17.213,9.413l0,0s-8.391,5.4-10.949,12.813h0a16.426,16.426,0,0,0-.677,4.677c0,.651.038,6.346.112,10.968a6.078,6.078,0,0,0,6.078,5.979h0a6.079,6.079,0,0,0,6.079-6.117c-.026-4.233-.04-9.162-.04-9.52,0-4.55,4.39-9.084,8-12.041a24.251,24.251,0,0,0,8.34-13.278,15.154,15.154,0,0,0,.437-3.29,23.193,23.193,0,0,0-23.361-23.193Z" transform="translate(-420.854 -208.489)"/><path class="c" d="M325.03,745.665H177.87a.208.208,0,1,1,0-.416H325.03a.208.208,0,1,1,0,.416Z" transform="translate(-177.662 -641.665)"/><circle class="d" cx="5.241" cy="5.241" r="5.241" transform="translate(104.557 37.213)"/><path class="e" d="M558.081,543.1h-2.142l-1.019-8.262h3.161Z" transform="translate(-457.968 -441.397)"/><path class="f" d="M539.71,578.626h4.131v2.6h-6.732A2.6,2.6,0,0,1,539.71,578.626Z" transform="translate(-443.269 -477.532)"/><path class="e" d="M653.081,543.1h-2.142l-1.019-8.262h3.161Z" transform="translate(-536.37 -441.397)"/><path class="f" d="M634.71,578.626h4.131v2.6h-6.732A2.6,2.6,0,0,1,634.71,578.626Z" transform="translate(-521.671 -477.532)"/><circle class="e" cx="4.291" cy="4.291" r="4.291" transform="translate(104.711 39.144)"/><path class="f" d="M743.719,446.931l1.92-4.411a5.483,5.483,0,0,0-1.214-6.22,5.572,5.572,0,0,0-.536-.467,5.4,5.4,0,0,0-3.318-1.148,5.622,5.622,0,0,0-2.341.521c-.063.028-.124.058-.187.087-.121.058-.239.121-.355.185a5.534,5.534,0,0,0-2.743,4.172l-.847,7.1c-.213.557-7.817,20.684-5.157,36.05a.78.78,0,0,0,.667.641l2.7.367a.786.786,0,0,0,.875-.617l4.523-21.561a.612.612,0,0,1,1.188-.04l6.391,22.674a.781.781,0,0,0,.753.573.894.894,0,0,0,.152-.014l3.293-.634a.781.781,0,0,0,.634-.84C749.629,477.953,747.057,450.919,743.719,446.931Z" transform="translate(-632.159 -385.361)"/><path class="e" d="M706.046,413.989a1.757,1.757,0,0,0,1.851,1.957l2.4,5.764,1.814-2.69-2.556-5.061a1.766,1.766,0,0,0-3.508.029Z" transform="translate(-613.72 -366.982)"/><path class="e" d="M790.8,504.6a1.757,1.757,0,0,0,1.472-2.256l5.047-3.676-3.038-1.138-4.327,3.665a1.766,1.766,0,0,0,.846,3.4Z" transform="translate(-682.038 -437.227)"/><path class="f" d="M723.8,446.99a2.979,2.979,0,0,1-.576-.057,2.849,2.849,0,0,1-2.087-1.68l-3.36-4.1a.786.786,0,0,1,.194-1.167l2.391-1.48a.786.786,0,0,1,1.086.26l2.368,3.9,4.536-3.352a1.7,1.7,0,0,1,1.976,2.719l-4.527,4.13A2.84,2.84,0,0,1,723.8,446.99Z" transform="translate(-623.267 -388.419)"/><path class="f" d="M809.5,459.2h-.018a.787.787,0,0,1-.578-.274l-2.126-2.48a.786.786,0,0,1,.161-1.166l3.98-2.653L807.31,448.3a1.7,1.7,0,0,1,2.6-2.128l4.382,4.283a2.887,2.887,0,0,1-.642,4.707l-3.582,3.8A.788.788,0,0,1,809.5,459.2Z" transform="translate(-696.705 -394.471)"/><path class="g" d="M784.094,438.894a.809.809,0,0,1-.1-.006.779.779,0,0,1-.648-.536l-1.6-4.9a.539.539,0,0,1,.279-.651l.052-.024.141-.066a5.691,5.691,0,0,1,2.377-.528,5.474,5.474,0,0,1,3,.9.547.547,0,0,1,.157.75l-3,4.694A.778.778,0,0,1,784.094,438.894Z" transform="translate(-676.184 -383.298)"/><circle class="d" cx="1.715" cy="1.715" r="1.715" transform="translate(112.216 36.684)"/><path class="d" d="M774.654,361.365h0a4.543,4.543,0,0,0-4.542,4.543v1.922h2.364l1.13-1.922.339,1.922h7.174l-1.922-1.922A4.543,4.543,0,0,0,774.654,361.365Z" transform="translate(-666.603 -324.851)"/><path class="d" d="M834.809,356.736a2.647,2.647,0,0,1,2.879-1.816,3.668,3.668,0,0,1,2.472,2.043,20.11,20.11,0,0,1,1.1,3.132,5.673,5.673,0,0,0,1.711,2.793,2.546,2.546,0,0,0,3.073.165,3.515,3.515,0,0,1-6.548,1.255,7.6,7.6,0,0,1-.7-2.664,5.823,5.823,0,0,0-.849-2.61,2.159,2.159,0,0,0-2.412-.9Z" transform="translate(-719.997 -319.511)"/><path class="c" d="M479.507,293.679h0a5.9,5.9,0,0,1-5.9-5.9c0-1.067,0-1.882,0-2a22.976,22.976,0,0,1,2.683-10.467,23.027,23.027,0,0,0-4.431,13.262c0,.116,0,.931,0,2a5.9,5.9,0,0,0,5.9,5.9h0a5.9,5.9,0,0,0,5.676-4.3A5.874,5.874,0,0,1,479.507,293.679Z" transform="translate(-420.464 -253.838)"/><path class="c" d="M563.693,278.213a11.182,11.182,0,0,1,9.724,15.622,11.181,11.181,0,1,0-18.769-11.7A11.159,11.159,0,0,1,563.693,278.213Z" transform="translate(-488.784 -253.909)"/><path class="c" d="M579.3,477.779h0a6.078,6.078,0,0,1-6.078-5.98c-.074-4.621-.112-10.316-.112-10.967a16.424,16.424,0,0,1,.677-4.677h0a16.6,16.6,0,0,1,.96-2.219,19.225,19.225,0,0,0-2.707,5.014h0a16.424,16.424,0,0,0-.677,4.677c0,.651.038,6.346.112,10.968a6.078,6.078,0,0,0,6.078,5.979h0a6.08,6.08,0,0,0,5.835-4.375A6.056,6.056,0,0,1,579.3,477.779Z" transform="translate(-502.579 -401.248)"/><path class="h" d="M126.539,543.558h2.142L129.7,535.3h-3.161Z" transform="translate(-104.43 -441.773)"/><path class="f" d="M0,0H6.732V2.6H2.6A2.6,2.6,0,0,1,0,0H0Z" transform="translate(28.381 103.774) rotate(179.997)"/><path class="h" d="M82.539,543.558H84.68L85.7,535.3H82.538Z" transform="translate(-68.118 -441.773)"/><path class="f" d="M0,0H6.732V2.6H2.6A2.6,2.6,0,0,1,0,0H0Z" transform="translate(20.693 103.774) rotate(179.997)"/><path class="f" d="M257.379,585.012l-2.092-.11a.817.817,0,0,1-.772-.868l2.5-27.686,11.516,3.107,1.109-.3-3.47,24.51a.82.82,0,0,1-.761.689l-2.255.105a.817.817,0,0,1-.862-.838l.409-14.71a.272.272,0,0,0-.539-.063l-3.941,15.517a.812.812,0,0,1-.8.651Z" transform="translate(-241.087 -485.768)"/><circle class="h" cx="4.291" cy="4.291" r="4.291" transform="translate(18.202 39.345)"/><path class="i" d="M265.476,442.172l.472,10.18.171,3.7a.811.811,0,0,0,.537.729l11.066,4.009a.783.783,0,0,0,.279.049.811.811,0,0,0,.815-.837l-.454-18.3a6.452,6.452,0,0,0-5.371-6.233c-.107-.016-.216-.033-.325-.047a6.333,6.333,0,0,0-5.1,1.65A6.506,6.506,0,0,0,265.476,442.172Z" transform="translate(-250.128 -385.929)"/><path class="h" d="M343.7,532.162a1.758,1.758,0,0,1-.938-2.66l-3.752-4.99,3.238-.2,3.067,4.769a1.767,1.767,0,0,1-1.615,3.081Z" transform="translate(-310.819 -459.328)"/><path class="i" d="M321.147,468.878a.812.812,0,0,1-.444-.44l-5.653-13.469a2.178,2.178,0,0,1,4.016-1.685l5.653,13.47a.817.817,0,0,1-.437,1.069l-2.51,1.053a.811.811,0,0,1-.625,0Z" transform="translate(-290.906 -399.607)"/><path class="c" d="M298.052,494.86l5.43-10.4a.852.852,0,0,1,1.149-.36l7.882,4.116a.852.852,0,0,1,.36,1.149l-5.43,10.4a.852.852,0,0,1-1.149.361l-7.882-4.116A.852.852,0,0,1,298.052,494.86Z" transform="translate(-276.938 -426.065)"/><path class="h" d="M281.927,498.959a1.758,1.758,0,0,0-2.711-.779l-5.2-3.451L274,497.973l4.942,2.78a1.767,1.767,0,0,0,2.981-1.794Z" transform="translate(-257.172 -434.914)"/><path class="i" d="M251.96,457.859l-4.252-3.368a3,3,0,0,1-1.367-4.741l3.861-5.06a1.764,1.764,0,0,1,2.993,1.8l-3.055,5,4.489,2.129a.817.817,0,0,1,.34,1.174l-1.812,2.868a.818.818,0,0,1-.553.369l-.014,0A.82.82,0,0,1,251.96,457.859Z" transform="translate(-233.783 -393.084)"/><path class="d" d="M277.88,376.45a.373.373,0,0,1,.324-.493.862.862,0,0,1,.607.3,2.417,2.417,0,0,0,.537.461.462.462,0,0,0,.607-.11.845.845,0,0,0-.032-.656,6.448,6.448,0,0,1-.285-1.707,3.006,3.006,0,0,1,.43-1.825,2.415,2.415,0,0,1,2.07-.88,13.906,13.906,0,0,1,2.325.412.781.781,0,0,0,.76-.128.98.98,0,0,0,.039-.874,6.072,6.072,0,0,0-.92-2.193,3.3,3.3,0,0,0-2.107-1.186,5.056,5.056,0,0,0-2.352.267,6.306,6.306,0,0,0-3.089,2.152,5.108,5.108,0,0,0-.975,3.774,4.659,4.659,0,0,0,1.727,2.945Z" transform="translate(-258.629 -329.94)"/><path class="c" d="M569.255,676.15a8.036,8.036,0,0,1-2.982-12.49A8.036,8.036,0,1,0,577.2,675.272a8.031,8.031,0,0,1-7.949.878Z" transform="translate(-495.656 -574.331)"/></svg>